mtllib unnamed.mtl
# vertices
v -112 -16 -144
v -112 -16 176
v -64 16 -64
v -32 16 64
v 64 16 64
v 176 -16 176
v 144 -16 -112
v 64 16 -64

# texture coordinates
vt -1.125 0.75
vt 1.375 0.75
vt -0.5 0.375
vt 0.5 0.125
vt 0.5 0.375
vt -0.25 0.375
vt -0.875 1.25
vt 1.375 1.25
vt -1.375 -1.375
vt 0.875 -1.375
vt 0.875 1.125
vt -1.125 0.875
vt 0.5 0.5
vt -0.5 0.5
vt -0.25 -0.5
vt 0.5 -0.5
vt 0.875 1
vt -1.375 1.25

# normals
vn -0.5547001962252291 0.8320502943378437 -0
vn -0.2833745387903258 0.9563890684173496 0.07084363469758145
vn 0 0.9615239476408232 0.27472112789737807
vn 0 -1 -0
vn -0 1 -0
vn 0 0.9284766908852594 -0.3713906763541037
vn 0.06027487746789122 0.8739857232844228 -0.4821990197431298
vn 0.27472112789737807 0.9615239476408232 -0
vn 0.3508565290134527 0.9356174107025406 -0.038984058779272523

o entity0_brush0
usemtl __TB_empty
f  1/1/1  2/2/1  3/3/1
usemtl __TB_empty
f  3/3/2  2/2/2  4/4/2
usemtl __TB_empty
f  5/5/3  4/6/3  2/7/3  6/8/3
usemtl __TB_empty
f  6/9/4  2/10/4  1/11/4  7/12/4
usemtl __TB_empty
f  8/13/5  3/14/5  4/15/5  5/16/5
usemtl __TB_empty
f  1/17/6  3/5/6  8/3/6
usemtl __TB_empty
f  7/1/7  1/17/7  8/3/7
usemtl __TB_empty
f  8/5/8  5/3/8  6/18/8
usemtl __TB_empty
f  7/17/9  8/5/9  6/18/9

